<?xml version="1.0" encoding="UTF-8" standalone="no"?>
<!-- Created with Inkscape (http://www.inkscape.org/) -->

<svg
   xmlns:dc="http://purl.org/dc/elements/1.1/"
   xmlns:cc="http://creativecommons.org/ns#"
   xmlns:rdf="http://www.w3.org/1999/02/22-rdf-syntax-ns#"
   xmlns:svg="http://www.w3.org/2000/svg"
   xmlns="http://www.w3.org/2000/svg"
   xmlns:sodipodi="http://sodipodi.sourceforge.net/DTD/sodipodi-0.dtd"
   xmlns:inkscape="http://www.inkscape.org/namespaces/inkscape"
   width="32"
   height="32"
   viewBox="0 0 32 32.000001"
   id="svg2"
   version="1.1"
   inkscape:version="0.91 r13725"
   sodipodi:docname="gnome-2048-symbolic.svg">
  <defs
     id="defs4" />
  <sodipodi:namedview
     id="base"
     pagecolor="#ffffff"
     bordercolor="#666666"
     borderopacity="1.0"
     inkscape:pageopacity="0.0"
     inkscape:pageshadow="2"
     inkscape:zoom="16"
     inkscape:cx="21.012643"
     inkscape:cy="13.643154"
     inkscape:document-units="px"
     inkscape:current-layer="layer1"
     showgrid="false"
     units="px"
     inkscape:window-width="1440"
     inkscape:window-height="824"
     inkscape:window-x="0"
     inkscape:window-y="27"
     inkscape:window-maximized="1"
     showguides="true"
     inkscape:guide-bbox="true">
    <sodipodi:guide
       position="8,0"
       orientation="1,0"
       id="guide4214"
       inkscape:label=""
       inkscape:color="rgb(0,0,255)" />
    <sodipodi:guide
       position="24,0"
       orientation="1,0"
       id="guide4216"
       inkscape:label=""
       inkscape:color="rgb(0,0,255)" />
    <sodipodi:guide
       position="0,19.000001"
       orientation="0,1"
       id="guide4218"
       inkscape:label=""
       inkscape:color="rgb(0,0,255)" />
    <sodipodi:guide
       position="0,3.0000001"
       orientation="0,1"
       id="guide4220"
       inkscape:label=""
       inkscape:color="rgb(0,0,255)" />
  </sodipodi:namedview>
  <metadata
     id="metadata7">
    <rdf:RDF>
      <cc:Work
         rdf:about="">
        <dc:format>image/svg+xml</dc:format>
        <dc:type
           rdf:resource="http://purl.org/dc/dcmitype/StillImage" />
        <dc:title></dc:title>
      </cc:Work>
    </rdf:RDF>
  </metadata>
  <g
     inkscape:label="Calque 1"
     inkscape:groupmode="layer"
     id="layer1"
     transform="translate(0,-1020.3622)">
    <path
       style="color:#000000;clip-rule:nonzero;display:inline;overflow:visible;visibility:visible;opacity:1;isolation:auto;mix-blend-mode:normal;color-interpolation:sRGB;color-interpolation-filters:linearRGB;solid-color:#000000;solid-opacity:1;fill:#bebebe;fill-opacity:1;fill-rule:nonzero;stroke:none;stroke-width:0;stroke-linecap:butt;stroke-linejoin:round;stroke-miterlimit:5.19999981;stroke-dasharray:none;stroke-dashoffset:0;stroke-opacity:1;color-rendering:auto;image-rendering:auto;shape-rendering:auto;text-rendering:auto;enable-background:accumulate"
       d="M 3 1 C 1.892 1 1 1.892 1 3 L 1 13 C 1 14.108 1.892 15 3 15 L 13 15 C 14.108 15 15 14.108 15 13 L 15 3 C 15 1.892 14.108 1 13 1 L 3 1 z M 7.6835938 3.3339844 C 9.9798437 3.3339844 11.039062 4.5302344 11.039062 6.0839844 C 11.039062 7.9677344 9.1957812 9.673125 7.3945312 11.515625 L 11.230469 11.515625 L 11.230469 13 L 4.671875 13 L 4.671875 11.941406 C 5.180625 11.460156 5.7596094 10.965156 6.4746094 10.222656 C 7.8496094 8.7789062 9.3476562 7.4033594 9.3476562 6.1933594 C 9.3476562 5.4233594 8.8935938 4.9433594 7.6835938 4.9433594 C 6.7210937 4.9433594 5.9517969 5.328125 5.1542969 5.671875 L 4.6582031 4.1992188 C 5.3182031 3.8554688 6.3910938 3.3339844 7.6835938 3.3339844 z "
       transform="translate(0,1020.3622)"
       id="rect4136" />
    <path
       style="color:#000000;clip-rule:nonzero;display:inline;overflow:visible;visibility:visible;opacity:1;isolation:auto;mix-blend-mode:normal;color-interpolation:sRGB;color-interpolation-filters:linearRGB;solid-color:#000000;solid-opacity:1;fill:#bebebe;fill-opacity:1;fill-rule:nonzero;stroke:none;stroke-width:0;stroke-linecap:butt;stroke-linejoin:round;stroke-miterlimit:5.19999981;stroke-dasharray:none;stroke-dashoffset:0;stroke-opacity:1;color-rendering:auto;image-rendering:auto;shape-rendering:auto;text-rendering:auto;enable-background:accumulate"
       d="M 3 17 C 1.892 17 1 17.892 1 19 L 1 29 C 1 30.108 1.892 31 3 31 L 13 31 C 14.108 31 15 30.108 15 29 L 15 19 C 15 17.892 14.108 17 13 17 L 3 17 z M 8.0703125 19.457031 L 10.351562 19.457031 L 10.351562 25.453125 L 12.015625 25.453125 L 12.015625 26.964844 L 10.351562 26.964844 L 10.351562 29 L 8.6601562 29 L 8.6601562 26.964844 L 4.0820312 26.964844 L 4.0820312 25.769531 L 8.0703125 19.457031 z M 8.6601562 21.300781 L 8.46875 21.712891 L 6.1035156 25.453125 L 8.6601562 25.453125 L 8.6601562 21.712891 L 8.6601562 21.300781 z "
       transform="translate(0,1020.3622)"
       id="rect4136-4" />
    <path
       style="color:#000000;clip-rule:nonzero;display:inline;overflow:visible;visibility:visible;opacity:1;isolation:auto;mix-blend-mode:normal;color-interpolation:sRGB;color-interpolation-filters:linearRGB;solid-color:#000000;solid-opacity:1;fill:#bebebe;fill-opacity:1;fill-rule:nonzero;stroke:none;stroke-width:0;stroke-linecap:butt;stroke-linejoin:round;stroke-miterlimit:5.19999981;stroke-dasharray:none;stroke-dashoffset:0;stroke-opacity:1;color-rendering:auto;image-rendering:auto;shape-rendering:auto;text-rendering:auto;enable-background:accumulate"
       d="M 19 17 C 17.892 17 17 17.892 17 19 L 17 29 C 17 30.108 17.892 31 19 31 L 29 31 C 30.108 31 31 30.108 31 29 L 31 19 C 31 17.892 30.108 17 29 17 L 19 17 z M 23.873047 19.332031 C 26.224297 19.332031 27.296875 20.294219 27.296875 21.792969 C 27.296875 22.549219 26.884844 23.114063 26.183594 23.664062 C 27.324844 24.282813 27.833984 25.176172 27.833984 26.138672 C 27.833984 27.623672 26.528281 29.136719 23.957031 29.136719 C 21.688281 29.136719 20.009766 27.966719 20.009766 26.261719 C 20.009766 25.257969 20.670234 24.296328 21.646484 23.705078 C 20.738984 23.086328 20.546875 22.246875 20.546875 21.765625 C 20.546875 20.431875 21.741797 19.332031 23.873047 19.332031 z M 23.873047 20.845703 C 22.938047 20.845703 22.306641 21.381797 22.306641 21.904297 C 22.306641 22.688047 23.446641 23.031953 24.244141 23.251953 C 25.151641 22.743203 25.564453 22.426406 25.564453 21.972656 C 25.564453 21.216406 24.766797 20.845703 23.873047 20.845703 z M 23.695312 24.130859 C 22.457812 24.474609 21.742188 25.259453 21.742188 26.001953 C 21.742188 26.799453 22.581641 27.568359 24.025391 27.568359 C 25.331641 27.568359 26.087891 26.867891 26.087891 26.056641 C 26.087891 24.956641 24.987813 24.460859 23.695312 24.130859 z "
       transform="translate(0,1020.3622)"
       id="rect4136-0" />
  </g>
</svg>
