<?xml version="1.0" encoding="UTF-8" standalone="no"?>
<!-- Created with Inkscape (http://www.inkscape.org/) -->

<svg
   xmlns:dc="http://purl.org/dc/elements/1.1/"
   xmlns:cc="http://creativecommons.org/ns#"
   xmlns:rdf="http://www.w3.org/1999/02/22-rdf-syntax-ns#"
   xmlns:svg="http://www.w3.org/2000/svg"
   xmlns="http://www.w3.org/2000/svg"
   xmlns:sodipodi="http://sodipodi.sourceforge.net/DTD/sodipodi-0.dtd"
   xmlns:inkscape="http://www.inkscape.org/namespaces/inkscape"
   width="16"
   height="16"
   viewBox="0 0 16 16"
   id="svg2"
   version="1.1"
   inkscape:version="0.92.2 2405546, 2018-03-11"
   sodipodi:docname="org.gnome.gnome-2048-symbolic.svg">
  <defs
     id="defs4" />
  <sodipodi:namedview
     id="base"
     pagecolor="#ffffff"
     bordercolor="#666666"
     borderopacity="1.0"
     inkscape:pageopacity="0.0"
     inkscape:pageshadow="2"
     inkscape:zoom="1"
     inkscape:cx="4.3897863"
     inkscape:cy="8.9039252"
     inkscape:document-units="px"
     inkscape:current-layer="layer1"
     showgrid="false"
     units="px"
     inkscape:window-width="1440"
     inkscape:window-height="836"
     inkscape:window-x="0"
     inkscape:window-y="27"
     inkscape:window-maximized="1"
     showguides="false"
     inkscape:guide-bbox="true"
     inkscape:showpageshadow="false"
     borderlayer="true"
     showborder="false"
     inkscape:snap-bbox="true"
     inkscape:snap-nodes="false"
     inkscape:snap-others="false">
    <sodipodi:guide
       position="8,0"
       orientation="1,0"
       id="guide4214"
       inkscape:label=""
       inkscape:color="rgb(0,0,255)"
       inkscape:locked="false" />
    <sodipodi:guide
       position="24,0"
       orientation="1,0"
       id="guide4216"
       inkscape:label=""
       inkscape:color="rgb(0,0,255)"
       inkscape:locked="false" />
    <sodipodi:guide
       position="0,19.000001"
       orientation="0,1"
       id="guide4218"
       inkscape:label=""
       inkscape:color="rgb(0,0,255)"
       inkscape:locked="false" />
    <sodipodi:guide
       position="0,3.0000001"
       orientation="0,1"
       id="guide4220"
       inkscape:label=""
       inkscape:color="rgb(0,0,255)"
       inkscape:locked="false" />
    <inkscape:grid
       type="xygrid"
       id="grid17093" />
  </sodipodi:namedview>
  <metadata
     id="metadata7">
    <rdf:RDF>
      <cc:Work
         rdf:about="">
        <dc:format>image/svg+xml</dc:format>
        <dc:type
           rdf:resource="http://purl.org/dc/dcmitype/StillImage" />
        <dc:title />
      </cc:Work>
    </rdf:RDF>
  </metadata>
  <g
     inkscape:label="Calque 1"
     inkscape:groupmode="layer"
     id="layer1"
     transform="translate(0,-1036.3622)">
    <path
       style="color:#000000;clip-rule:nonzero;display:inline;overflow:visible;visibility:visible;opacity:1;isolation:auto;mix-blend-mode:normal;color-interpolation:sRGB;color-interpolation-filters:linearRGB;solid-color:#000000;solid-opacity:1;fill:#bebebe;fill-opacity:1;fill-rule:nonzero;stroke:none;stroke-width:0;stroke-linecap:butt;stroke-linejoin:round;stroke-miterlimit:5.19999981;stroke-dasharray:none;stroke-dashoffset:0;stroke-opacity:1;color-rendering:auto;image-rendering:auto;shape-rendering:auto;text-rendering:auto;enable-background:accumulate"
       d="m 0,1044.3622 -0.00189563,6.0121 c -1.7342e-4,0.5501 0.4980357,0.9817 1.04805203,0.9817 H 7 c 0,0 0.00117,-4.6566 0,-6.9938 z m 3.3490169,1.1586 c 1.1398693,0 1.6656702,0.5937 1.6656702,1.3651 0,0.9351 -0.8929161,1.826 -1.787065,2.7406 h 1.9041774 v 0.7368 H 1.8760829 v -0.5255 c 0.2525458,-0.2389 0.5178594,-0.5288 0.8727887,-0.8975 0.6825565,-0.7165 1.4261937,-1.3995 1.4261937,-2.0001 0,-0.3822 -0.2253986,-0.6206 -0.8260484,-0.6206 -0.4777894,0 -0.8596718,0.191 -1.2555545,0.3617 l -0.2462633,-0.731 c 0.3276269,-0.1706 0.860215,-0.4295 1.5018178,-0.4295 z"
       id="rect4136"
       inkscape:connector-curvature="0"
       sodipodi:nodetypes="csscccssccccccssccs" />
    <path
       style="color:#000000;clip-rule:nonzero;display:inline;overflow:visible;visibility:visible;opacity:1;isolation:auto;mix-blend-mode:normal;color-interpolation:sRGB;color-interpolation-filters:linearRGB;solid-color:#000000;solid-opacity:1;fill:#bebebe;fill-opacity:1;fill-rule:nonzero;stroke:none;stroke-width:0;stroke-linecap:butt;stroke-linejoin:round;stroke-miterlimit:5.19999981;stroke-dasharray:none;stroke-dashoffset:0;stroke-opacity:1;color-rendering:auto;image-rendering:auto;shape-rendering:auto;text-rendering:auto;enable-background:accumulate"
       d="m 1.0240602,1036.3731 c -0.55001683,0 -0.9928102,0.4428 -0.9928102,0.9928 L 0,1043.3622 h 7 v -7 z m 2.5169292,1.2197 h 1.132424 v 2.9764 h 0.8260492 v 0.7504 H 4.6734134 v 1.0103 H 3.8337909 v -1.0103 H 1.561186 v -0.5933 z m 0.2928015,0.9152 -0.095015,0.2045 -1.1741145,1.8567 h 1.2691294 v -1.8567 z"
       id="rect4136-4"
       inkscape:connector-curvature="0"
       sodipodi:nodetypes="cccccccccccccccccccccccc" />
    <path
       style="color:#000000;clip-rule:nonzero;display:inline;overflow:visible;visibility:visible;opacity:1;isolation:auto;mix-blend-mode:normal;color-interpolation:sRGB;color-interpolation-filters:linearRGB;solid-color:#000000;solid-opacity:1;fill:#bebebe;fill-opacity:1;fill-rule:nonzero;stroke:none;stroke-width:0;stroke-linecap:butt;stroke-linejoin:round;stroke-miterlimit:5.19999981;stroke-dasharray:none;stroke-dashoffset:0;stroke-opacity:1;color-rendering:auto;image-rendering:auto;shape-rendering:auto;text-rendering:auto;enable-background:accumulate"
       d="M 7.9805951,1036.3622 8,1043.344 h 7 v -5.9818 c 0,-0.5547 -0.449984,-1 -1,-1 z m 3.4118179,1.1896 c 1.167174,0 1.699606,0.4778 1.699606,1.2217 0,0.3754 -0.204535,0.6558 -0.552639,0.9289 0.566524,0.307 0.819265,0.7506 0.819265,1.2283 0,0.7373 -0.648159,1.4884 -1.924543,1.4884 -1.126219,0 -1.959442,-0.5808 -1.959442,-1.4272 0,-0.4984 0.32786,-0.9757 0.812475,-1.2691 -0.450487,-0.3071 -0.545852,-0.724 -0.545852,-0.9628 0,-0.6621 0.593165,-1.2082 1.65113,-1.2082 z m 0,0.7515 c -0.464139,0 -0.777573,0.2661 -0.777573,0.5254 0,0.3891 0.565903,0.5599 0.961786,0.6689 0.450488,-0.2524 0.65541,-0.4096 0.65541,-0.6349 0,-0.3755 -0.395961,-0.5594 -0.839623,-0.5594 z m -0.08823,1.6309 c -0.614303,0.1705 -0.969542,0.56 -0.969542,0.9287 0,0.3959 0.416709,0.7776 1.133395,0.7776 0.648428,0 1.023836,-0.3477 1.023836,-0.7505 0,-0.5459 -0.546085,-0.7921 -1.187689,-0.9558 z"
       id="rect4136-0"
       inkscape:connector-curvature="0"
       sodipodi:nodetypes="ccccccsscssscsssscsscsssc" />
  </g>
</svg>
