<?xml version="1.0" encoding="UTF-8" standalone="no"?>
<svg
   xmlns:osb="http://www.openswatchbook.org/uri/2009/osb"
   xmlns:dc="http://purl.org/dc/elements/1.1/"
   xmlns:cc="http://creativecommons.org/ns#"
   xmlns:rdf="http://www.w3.org/1999/02/22-rdf-syntax-ns#"
   xmlns:svg="http://www.w3.org/2000/svg"
   xmlns="http://www.w3.org/2000/svg"
   width="16"
   viewBox="0 0 16 16"
   version="1.1"
   id="svg7384"
   height="16">
  <metadata
     id="metadata90">
    <rdf:RDF>
      <cc:Work
         rdf:about="">
        <dc:format>image/svg+xml</dc:format>
        <dc:type
           rdf:resource="http://purl.org/dc/dcmitype/StillImage" />
        <dc:title>Gnome Symbolic Icon Theme</dc:title>
      </cc:Work>
    </rdf:RDF>
  </metadata>
  <title
     id="title9167">Gnome Symbolic Icon Theme</title>
  <defs
     id="defs7386">
    <linearGradient
       osb:paint="solid"
       id="linearGradient7212">
      <stop
         style="stop-color:#000000;stop-opacity:1;"
         offset="0"
         id="stop7214" />
    </linearGradient>
  </defs>
  <g
     transform="translate(-120,-158)"
     id="layer10" />
  <g
     transform="translate(-361.0002,209)"
     style="display:inline"
     id="layer9">
    <path
       d="m 363.1877,-208.98828 c -1.20512,0 -2.1875,1.01794 -2.1875,2.21875 V -202 h 7 v -6.98828 z m 1.53125,1.68164 c 0.8768,0 1.44531,0.47322 1.44531,1.19922 0,0.61433 -0.40756,1.24112 -1.22851,1.89453 h 1.33007 v 0.83789 h -2.73632 v -0.68164 c 1.01083,-0.83771 1.6289,-1.41816 1.6289,-1.89844 0,-0.30157 -0.24551,-0.50976 -0.63086,-0.50976 -0.27923,0 -0.58569,0.11227 -0.89843,0.33007 l -0.2461,-0.70898 c 0.37418,-0.30716 0.83332,-0.46289 1.33594,-0.46289 z M 361.0002,-201 v 4.79297 c 0,1.20081 0.98238,2.21875 2.1875,2.21875 h 4.8125 V -201 Z m 8,0 v 7.01172 h 4.8125 c 1.20512,0 2.1875,-1.01794 2.1875,-2.21875 V -201 h -5 z m 3.48438,1.4082 c 0.84558,0 1.4375,0.40555 1.4375,1.01368 0,0.37067 -0.22551,0.68993 -0.63672,0.89843 0.417,0.17375 0.76953,0.44582 0.76953,0.99024 0,0.73554 -0.64822,1.23437 -1.63281,1.23437 -0.93827,0 -1.58204,-0.45309 -1.58204,-1.11914 0,-0.40542 0.23722,-0.72273 0.64844,-0.89648 -0.30697,-0.17955 -0.53711,-0.44669 -0.53711,-0.89844 0,-0.72976 0.60653,-1.22266 1.53321,-1.22266 z m -7.66407,0.10742 h 0.93946 v 2.42774 h 0.69726 v 0.83398 h -0.69726 v 0.73828 h -0.9668 v -0.73828 h -1.82031 v -0.51953 z m 7.61328,0.69336 c -0.31275,0 -0.50976,0.15485 -0.50976,0.36914 0,0.23746 0.23621,0.36646 0.56055,0.47071 0.278,-0.0463 0.46484,-0.21553 0.46484,-0.44141 0,-0.24325 -0.20287,-0.39844 -0.51563,-0.39844 z m -7.64062,0.41211 -0.83008,1.31055 0.83008,0.006 z m 7.4082,1.19141 c -0.24904,0.0637 -0.38867,0.20765 -0.38867,0.42773 0,0.30697 0.26645,0.50391 0.67188,0.50391 0.37066,0 0.59765,-0.15492 0.59765,-0.375 0,-0.30117 -0.41752,-0.41185 -0.88086,-0.55664 z"
       id="path1972"
       style="color:#bebebe;font-style:normal;font-variant:normal;font-weight:normal;font-stretch:normal;font-size:medium;line-height:normal;font-family:'Bitstream Vera Sans';-inkscape-font-specification:'Bitstream Vera Sans';text-indent:0;text-align:start;text-decoration:none;text-decoration-line:none;letter-spacing:normal;word-spacing:normal;text-transform:none;writing-mode:lr-tb;direction:ltr;text-anchor:start;display:inline;overflow:visible;visibility:visible;fill:#241f31;fill-opacity:1;stroke:none;stroke-width:2;marker:none;enable-background:accumulate" />
  </g>
</svg>
